<svg width="216" height="166" viewBox="0 0 216 166" fill="none" xmlns="http://www.w3.org/2000/svg">
<g clip-path="url(#clip0_502_2402)">
<path d="M8.9794 155.963C8.9794 157.346 8.57355 158.45 7.74918 159.262C6.9248 160.074 5.8214 160.493 4.41361 160.493C3.79216 160.493 3.05656 160.379 2.19413 160.163C1.4078 159.96 0.760978 159.846 0.26635 159.846C0.228302 158.666 0.139523 157.473 0.0126953 156.293C0.0126953 156.179 0.114157 156.128 0.329764 156.128C0.481957 156.128 0.570737 156.179 0.596102 156.293C0.976585 157.587 1.45853 158.501 2.04194 159.034C2.62534 159.567 3.44972 159.82 4.50239 159.82C5.33945 159.82 5.99896 159.579 6.45553 159.084C6.91211 158.602 7.15309 157.917 7.15309 157.041C7.15309 156.483 6.95016 155.95 6.54431 155.468C6.13847 154.986 5.27604 154.364 3.96972 153.59C2.46047 152.714 1.47121 151.978 1.00195 151.382C0.532688 150.773 0.304399 150.1 0.304399 149.364C0.304399 148.235 0.72293 147.271 1.55999 146.484C2.39705 145.697 3.4624 145.304 4.75605 145.304C5.23799 145.304 5.80871 145.367 6.44285 145.507C7.03894 145.621 7.54625 145.685 7.97747 145.685C8.06624 146.915 8.16771 147.994 8.30722 148.92C8.30722 149.035 8.21844 149.085 8.04088 149.085C7.85064 149.085 7.73649 149.035 7.72381 148.92C7.49552 147.88 7.1404 147.118 6.68382 146.662C6.21456 146.205 5.56774 145.976 4.74336 145.976C3.91898 145.976 3.33558 146.205 2.879 146.662C2.42242 147.118 2.19413 147.74 2.19413 148.514C2.19413 149.009 2.38437 149.479 2.77754 149.935C3.15802 150.38 4.00776 150.989 5.28872 151.737C6.82333 152.626 7.82527 153.374 8.29453 153.971C8.7638 154.567 9.00477 155.227 9.00477 155.95L8.9794 155.963Z" fill="white"/>
<path d="M16.9315 151.852C16.9315 152.232 16.8427 152.41 16.6651 152.41L13.5579 152.321V157.333C13.5579 158.64 14.0271 159.3 14.953 159.3C15.5364 159.3 16.0564 159.161 16.5256 158.894C16.5764 158.894 16.6271 158.932 16.6778 159.008C16.7286 159.084 16.7412 159.161 16.7412 159.249C16.7412 159.427 16.4876 159.655 15.9676 159.947C15.4476 160.239 14.8642 160.391 14.2174 160.391C13.431 160.391 12.7969 160.15 12.3276 159.668C11.8584 159.186 11.6174 158.551 11.6174 157.752V157.663L11.6555 152.588C11.6555 152.397 11.5667 152.296 11.4018 152.296H10.6155C10.4633 152.296 10.3872 152.207 10.3872 152.029C10.3872 151.89 10.4506 151.788 10.5774 151.725C11.5413 151.154 12.3784 150.342 13.1013 149.301C13.1774 149.187 13.2788 149.136 13.393 149.136C13.5832 149.136 13.6847 149.187 13.6847 149.301L13.5959 151.293H16.6651C16.8427 151.293 16.9315 151.484 16.9315 151.852Z" fill="white"/>
<path d="M42.4999 159.871C42.4999 160.061 42.4492 160.163 42.335 160.163C41.8658 160.163 41.2951 160.138 40.6355 160.1C40.0014 160.061 39.4687 160.036 39.0502 160.036C38.6317 160.036 38.1117 160.061 37.5029 160.1C36.8688 160.138 36.3107 160.163 35.8415 160.163C35.7146 160.163 35.6512 160.061 35.6512 159.871C35.6512 159.693 35.702 159.605 35.8161 159.592C36.6278 159.49 37.1858 159.338 37.4775 159.148C37.7692 158.957 37.9214 158.564 37.9214 157.993V157.828L37.4775 147.715L32.4425 160.341C32.4044 160.455 32.303 160.506 32.1508 160.506C31.9859 160.506 31.8971 160.455 31.8718 160.341L27.1284 148.222L26.3801 157.854C26.3674 157.968 26.3548 158.082 26.3548 158.171C26.3548 158.64 26.5196 158.97 26.8367 159.173C27.1538 159.376 27.7245 159.529 28.5489 159.617C28.6503 159.63 28.7011 159.732 28.7011 159.909C28.7011 160.1 28.6377 160.201 28.5108 160.201C28.143 160.201 27.6611 160.176 27.027 160.138C26.4435 160.1 25.9996 160.074 25.6826 160.074C25.3401 160.074 24.8582 160.1 24.2621 160.138C23.6787 160.176 23.2348 160.201 22.9304 160.201C22.829 160.201 22.7782 160.1 22.7782 159.909C22.7782 159.732 22.8416 159.643 22.9685 159.63C23.8436 159.529 24.4524 159.364 24.7948 159.135C25.1372 158.907 25.3275 158.488 25.3782 157.866L26.4689 148.032C26.4689 147.905 26.4689 147.791 26.4689 147.702C26.4689 147.245 26.304 146.915 25.987 146.725C25.6699 146.522 25.0865 146.37 24.2494 146.268C24.148 146.268 24.0972 146.167 24.0972 145.976C24.0972 145.913 24.1226 145.837 24.1606 145.786C24.1987 145.723 24.2494 145.697 24.2875 145.697C24.5411 145.697 24.9089 145.723 25.3782 145.761C25.784 145.799 26.0757 145.824 26.266 145.824C26.507 145.824 26.8621 145.799 27.306 145.761C27.7752 145.723 28.1304 145.697 28.3967 145.697L32.8737 157.295L37.5029 145.697C37.7819 145.697 38.137 145.723 38.5936 145.761C38.9995 145.799 39.3292 145.824 39.5575 145.824C39.8492 145.824 40.2043 145.799 40.6102 145.761C41.0287 145.723 41.3965 145.697 41.7009 145.697C41.8277 145.697 41.8911 145.799 41.8911 145.989C41.8911 146.179 41.8404 146.281 41.7263 146.281C40.9146 146.382 40.3565 146.535 40.0648 146.725C39.7731 146.915 39.6209 147.309 39.6209 147.88V148.057L40.1029 157.892C40.1282 158.374 40.2043 158.716 40.3312 158.919C40.458 159.11 40.6863 159.275 40.9907 159.389C41.3077 159.503 41.7516 159.592 42.335 159.668C42.4492 159.681 42.4999 159.77 42.4999 159.947V159.871Z" fill="white"/>
<path d="M48.4862 159.871C48.4862 160.061 48.4355 160.163 48.3213 160.163C48.0423 160.163 47.6745 160.138 47.2306 160.1C46.736 160.061 46.3174 160.036 45.975 160.036C45.6326 160.036 45.214 160.061 44.7321 160.1C44.2882 160.138 43.9331 160.163 43.6414 160.163C43.5272 160.163 43.4765 160.061 43.4765 159.871C43.4765 159.693 43.5272 159.605 43.6414 159.592C44.2375 159.516 44.618 159.376 44.7828 159.161C44.9477 158.945 45.0365 158.513 45.0365 157.828V153.971C45.0365 153.412 44.9604 153.044 44.8209 152.879C44.6814 152.714 44.3643 152.588 43.8823 152.537C43.7682 152.537 43.7175 152.448 43.7175 152.258C43.7175 152.093 43.7682 152.004 43.8823 152.004C44.6053 151.813 45.2014 151.61 45.6706 151.407C46.1399 151.192 46.4316 151.014 46.5457 150.874C46.6091 150.786 46.6979 150.748 46.774 150.748C46.9643 150.748 47.0657 150.798 47.0657 150.913C46.9516 152.473 46.9008 153.679 46.9008 154.542V157.815C46.9008 158.501 46.9896 158.945 47.1545 159.148C47.3194 159.364 47.7125 159.503 48.3213 159.579C48.4355 159.592 48.4862 159.681 48.4862 159.858V159.871ZM47.0277 147.245C47.0277 147.537 46.9262 147.791 46.7106 148.007C46.495 148.222 46.2413 148.324 45.9496 148.324C45.6579 148.324 45.3916 148.222 45.1887 148.007C44.9731 147.791 44.8716 147.537 44.8716 147.245C44.8716 146.941 44.9731 146.687 45.1887 146.471C45.3916 146.256 45.6579 146.154 45.9623 146.154C46.2667 146.154 46.5204 146.256 46.7233 146.471C46.9389 146.687 47.0404 146.941 47.0404 147.245H47.0277Z" fill="white"/>
<path d="M57.567 152.473C57.567 153.044 57.2753 153.323 56.7173 153.323C56.4763 153.323 56.2734 153.273 56.1212 153.171C55.969 153.07 55.8041 152.841 55.6519 152.486C55.4617 152.08 55.2588 151.801 55.0558 151.674C54.8402 151.547 54.5739 151.484 54.2315 151.484C53.3944 151.484 52.7476 151.839 52.3037 152.537C51.8598 153.235 51.6442 154.262 51.6442 155.608C51.6442 156.724 51.9232 157.638 52.4812 158.323C53.0393 159.008 53.7876 159.351 54.7134 159.351C55.7661 159.351 56.6158 159.021 57.2246 158.361L57.2753 158.336C57.2753 158.336 57.4022 158.374 57.4529 158.45C57.5163 158.526 57.5417 158.615 57.5417 158.716C57.5417 158.856 57.3387 159.097 56.9329 159.44C56.527 159.782 56.0831 160.036 55.6012 160.214C55.1193 160.391 54.5993 160.48 54.0666 160.48C52.8237 160.48 51.7583 160.023 50.8705 159.11C49.9827 158.196 49.5388 157.041 49.5388 155.633C49.5388 154.224 50.0081 153.095 50.9339 152.194C51.8598 151.281 52.9632 150.836 54.2315 150.836C55.17 150.836 55.969 151.001 56.6158 151.319C57.2626 151.636 57.5924 152.029 57.5924 152.486L57.567 152.473Z" fill="white"/>
<path d="M69.9074 159.871C69.9074 160.061 69.8566 160.163 69.7425 160.163C69.4635 160.163 69.121 160.138 68.7152 160.1C68.2713 160.061 67.8781 160.036 67.5484 160.036C67.2186 160.036 66.8001 160.061 66.3435 160.1C65.925 160.138 65.5825 160.163 65.3035 160.163C65.1894 160.163 65.1386 160.061 65.1386 159.871C65.1386 159.693 65.1894 159.605 65.3035 159.592C65.7855 159.541 66.1025 159.402 66.2547 159.186C66.4069 158.97 66.483 158.513 66.483 157.828V154.339C66.483 152.841 65.7981 152.08 64.4284 152.08C63.566 152.08 62.8177 152.423 62.1836 153.12V157.815C62.1836 158.437 62.2723 158.881 62.4499 159.122C62.6275 159.364 62.9826 159.516 63.5153 159.579C63.6294 159.592 63.6801 159.681 63.6801 159.858C63.6801 160.049 63.6294 160.15 63.5153 160.15C63.2362 160.15 62.8558 160.125 62.3992 160.087C61.8792 160.049 61.4606 160.023 61.1182 160.023C60.7758 160.023 60.3699 160.049 59.926 160.087C59.5329 160.125 59.1904 160.15 58.8987 160.15C58.7846 160.15 58.7339 160.049 58.7339 159.858C58.7339 159.681 58.7846 159.592 58.8987 159.579C59.4821 159.516 59.8626 159.376 60.0402 159.161C60.2177 158.945 60.3065 158.501 60.3065 157.815V148.121C60.3065 147.563 60.2431 147.195 60.1036 147.017C59.9641 146.839 59.647 146.725 59.1524 146.674C59.0382 146.662 58.9875 146.573 58.9875 146.408C58.9875 146.218 59.0382 146.129 59.1524 146.129C60.3319 145.85 61.2197 145.482 61.7904 145.025C61.8919 144.936 61.9806 144.898 62.0567 144.898C62.247 144.898 62.3484 144.949 62.3484 145.063C62.2343 146.205 62.1836 147.41 62.1836 148.692V152.232C63.1855 151.281 64.1621 150.811 65.1386 150.811C66.1152 150.811 66.9142 151.078 67.4723 151.623C68.043 152.169 68.322 152.892 68.322 153.818V157.803C68.322 158.488 68.4108 158.932 68.5884 159.148C68.7659 159.364 69.1464 159.503 69.7425 159.567C69.8566 159.579 69.9074 159.668 69.9074 159.846V159.871Z" fill="white"/>
<path d="M77.4282 160.391C77.0351 160.391 76.7053 160.29 76.4136 160.1C76.1219 159.909 75.9317 159.643 75.8302 159.325C75.0819 160.087 74.1054 160.48 72.9132 160.48C72.2917 160.48 71.7717 160.29 71.3786 159.896C70.9854 159.503 70.7825 159.034 70.7825 158.45C70.7825 157.029 72.4693 155.861 75.8556 154.986L75.919 153.362V153.311C75.919 152.803 75.7922 152.41 75.5512 152.118C75.3102 151.826 74.9805 151.674 74.5619 151.674C74.1434 151.674 73.801 151.775 73.5219 151.966C73.2429 152.169 73.0907 152.41 73.078 152.714C73.078 153.159 72.9512 153.501 72.7229 153.755C72.4946 154.009 72.1903 154.136 71.8225 154.136C71.5942 154.136 71.4166 154.072 71.2771 153.933C71.1376 153.806 71.0742 153.628 71.0742 153.4C71.0742 152.867 71.5561 152.296 72.5327 151.712C73.5093 151.128 74.4097 150.824 75.2468 150.824C75.9951 150.824 76.6039 151.052 77.0731 151.496C77.5424 151.94 77.7707 152.537 77.7707 153.298V153.425L77.6185 158.145V158.222C77.6185 158.957 77.8594 159.313 78.3287 159.313C78.557 159.313 78.8233 159.173 79.1277 158.894L79.2038 158.869C79.2038 158.869 79.3053 158.907 79.356 158.983C79.4067 159.059 79.4321 159.135 79.4321 159.211C79.4321 159.414 79.2165 159.655 78.798 159.947C78.3794 160.239 77.9229 160.391 77.4282 160.391ZM75.8302 155.684C73.801 156.14 72.799 156.902 72.799 157.968C72.799 158.957 73.1795 159.452 73.9405 159.452C74.3083 159.452 74.6761 159.364 75.0312 159.173C75.3863 158.983 75.6273 158.754 75.7541 158.488L75.8429 155.684H75.8302Z" fill="white"/>
<path d="M88.2974 154.237C88.2974 154.427 88.1705 154.529 87.9169 154.529H82.197C82.1589 154.91 82.1336 155.29 82.1336 155.696C82.1336 156.813 82.3999 157.676 82.9326 158.285C83.4652 158.881 84.2262 159.186 85.2028 159.186C85.6974 159.186 86.192 159.059 86.6993 158.793C87.2067 158.526 87.5998 158.196 87.9169 157.777L87.9676 157.752C87.9676 157.752 88.0944 157.79 88.1452 157.866C88.2086 157.942 88.234 158.031 88.234 158.133C88.234 158.285 88.0057 158.589 87.5618 159.046C87.1179 159.503 86.6359 159.858 86.1159 160.1C85.5959 160.341 85.0506 160.467 84.4799 160.467C83.2243 160.467 82.1716 160.011 81.3219 159.084C80.4721 158.171 80.0409 157.041 80.0409 155.696C80.0409 154.351 80.4594 153.171 81.2965 152.232C82.1335 151.293 83.1989 150.811 84.4799 150.811C85.5579 150.811 86.4711 151.166 87.194 151.864C87.9296 152.575 88.2974 153.349 88.2974 154.212V154.237ZM86.395 153.323C86.395 152.803 86.2174 152.372 85.8623 152.029C85.5072 151.687 85.0379 151.509 84.4799 151.509C83.9218 151.509 83.4779 151.737 83.0848 152.181C82.6916 152.626 82.4252 153.222 82.2857 153.945L85.1901 153.856C85.634 153.856 85.9384 153.806 86.1286 153.73C86.3189 153.653 86.4076 153.514 86.4076 153.311L86.395 153.323Z" fill="white"/>
<path d="M94.3851 159.846C94.3851 160.036 94.3343 160.138 94.2202 160.138C93.9412 160.138 93.5734 160.125 93.1295 160.087C92.6222 160.049 92.2036 160.036 91.8612 160.036C91.5188 160.036 91.1129 160.049 90.6183 160.087C90.1744 160.125 89.8066 160.138 89.5276 160.138C89.4134 160.138 89.3627 160.036 89.3627 159.846C89.3627 159.668 89.4134 159.579 89.5276 159.567C90.1237 159.503 90.5042 159.351 90.6817 159.148C90.8593 158.932 90.948 158.488 90.948 157.803V148.108C90.948 147.55 90.872 147.182 90.7324 147.004C90.5929 146.827 90.2759 146.712 89.7685 146.662C89.6544 146.649 89.6037 146.56 89.6037 146.395C89.6037 146.23 89.6544 146.141 89.7685 146.141C90.5041 145.951 91.1002 145.748 91.5695 145.545C92.0388 145.342 92.3305 145.152 92.4446 145.012C92.508 144.936 92.5968 144.898 92.6729 144.898C92.8631 144.898 92.9646 144.949 92.9646 145.063C92.8505 146.624 92.7997 147.829 92.7997 148.692V157.803C92.7997 158.488 92.8885 158.932 93.0661 159.148C93.2436 159.364 93.6241 159.503 94.2202 159.567C94.3343 159.579 94.3851 159.668 94.3851 159.846Z" fill="white"/>
<path d="M98.228 147.436C98.228 148.096 98.1011 148.705 97.8348 149.238C97.5685 149.771 97.1753 150.265 96.6553 150.697C96.1226 151.128 95.7929 151.344 95.6407 151.344C95.5519 151.344 95.4758 151.293 95.4124 151.204C95.349 151.116 95.3236 151.027 95.3236 150.963L95.349 150.874C96.4904 150.139 97.0611 149.263 97.0611 148.248C97.0611 147.931 97.0104 147.766 96.8963 147.766L96.7694 147.791C96.6807 147.829 96.6172 147.842 96.5665 147.842C96.2368 147.842 95.9704 147.728 95.7421 147.486C95.5265 147.245 95.4124 146.954 95.4124 146.611C95.4124 146.268 95.5265 145.989 95.7675 145.761C96.0085 145.532 96.2875 145.405 96.6172 145.405C97.0865 145.405 97.467 145.596 97.7714 145.976C98.0758 146.357 98.228 146.839 98.228 147.423V147.436Z" fill="white"/>
<path d="M104.037 157.473C104.037 158.323 103.707 159.034 103.035 159.617C102.363 160.201 101.564 160.48 100.612 160.48C100.283 160.48 99.7626 160.404 99.065 160.264C98.545 160.163 98.1899 160.112 97.9996 160.112C97.9489 159.63 97.8221 158.881 97.6192 157.892C97.6192 157.79 97.7206 157.739 97.9236 157.739C98.0884 157.739 98.1899 157.79 98.2279 157.904C98.3928 158.425 98.7099 158.869 99.1791 159.249C99.6484 159.63 100.143 159.82 100.638 159.82C101.132 159.82 101.564 159.681 101.855 159.389C102.147 159.11 102.286 158.704 102.286 158.183C102.286 157.854 102.172 157.562 101.931 157.321C101.69 157.067 101.17 156.762 100.371 156.394C99.3187 155.912 98.6211 155.455 98.2914 155.037C97.9489 154.618 97.784 154.11 97.784 153.514C97.784 152.778 98.1011 152.156 98.7353 151.623C99.3694 151.09 100.118 150.836 100.98 150.836C101.348 150.836 101.855 150.9 102.502 151.027C102.87 151.09 103.098 151.128 103.212 151.128C103.238 151.953 103.276 152.651 103.352 153.222C103.352 153.323 103.25 153.374 103.047 153.374C102.87 153.374 102.781 153.323 102.756 153.209C102.68 152.702 102.489 152.283 102.185 151.978C101.881 151.661 101.513 151.496 101.094 151.496C100.016 151.496 99.4709 151.966 99.4709 152.917C99.4709 153.235 99.5977 153.539 99.8513 153.806C100.105 154.072 100.663 154.427 101.525 154.859C102.553 155.379 103.225 155.823 103.555 156.191C103.884 156.572 104.049 156.991 104.049 157.46L104.037 157.473Z" fill="white"/>
<path d="M71.5688 38.3594C71.5688 38.3594 73.9405 35.3267 75.158 33.9563C75.1073 29.6673 77.7073 27.8401 79.9014 26.0002C79.7111 26.4443 79.0897 27.8147 79.4194 28.6268C80.155 25.188 82.6535 24.0206 85.2155 22.6375C86.712 21.8381 88.2974 21.1275 89.87 20.7468C89.4388 21.3686 88.9569 21.9523 88.8047 22.9167C90.8085 19.7825 94.4358 18.209 99.3567 18.8942C98.8494 19.1988 98.3421 19.4906 97.8221 19.7951L97.6319 19.6809L93.9539 21.0641L96.9216 20.3154C96.3509 20.6453 95.7802 20.9752 95.2095 21.3178L91.5061 21.8381L94.4612 21.762C92.3432 23.0182 90.2378 24.3379 88.2086 25.8479C88.1579 25.886 88.1198 25.924 88.0691 25.9494L84.6828 27.1041L87.3081 26.5331C85.9384 27.599 84.6067 28.5761 82.3238 28.4365C82.7423 28.6776 83.6428 28.8425 84.1247 28.8045C84.1501 29.1598 83.5921 29.477 83.1862 29.845C81.195 31.6849 79.4828 34.2228 75.9697 34.2735C74.6888 35.3648 71.8732 38.5371 71.8732 38.5371L71.5308 38.3467L71.5688 38.3594Z" fill="white"/>
<path d="M76.7053 44.4502C76.6546 40.1486 79.2545 38.3341 81.4487 36.4941C81.2584 36.9382 80.6243 38.3087 80.9667 39.1335C81.7023 35.6947 84.2008 34.5273 86.7627 33.1442C88.272 32.3448 89.8573 31.6342 91.4173 31.2535C90.9861 31.8879 90.5041 32.459 90.3519 33.436C92.3558 30.3018 95.9831 28.7156 100.904 29.4135C100.397 29.7181 99.8767 30.0099 99.3694 30.3145L99.1791 30.2003L95.5012 31.5834L98.4689 30.8347C97.8982 31.1647 97.3275 31.4946 96.7567 31.8245L93.0534 32.3448L96.0085 32.2686C93.8904 33.5248 91.7851 34.8445 89.7559 36.3545C89.7051 36.3926 89.6671 36.4307 89.6164 36.456L86.2427 37.6108L88.8681 37.0398C87.4983 38.1056 86.1666 39.0827 83.8964 38.9431C84.315 39.1842 85.2154 39.3365 85.6974 39.3111C85.7227 39.6664 85.1647 39.9836 84.7715 40.3516C82.7803 42.1916 81.0682 44.7167 77.5551 44.7802C76.2868 45.8714 73.4712 49.0437 73.4712 49.0437L73.1161 48.8534C73.1161 48.8534 75.4878 45.8207 76.718 44.4502" fill="white"/>
<path d="M73.7122 60.5274L73.3571 60.3498C73.3571 60.3498 75.7287 57.3171 76.9463 55.9466C76.8955 51.645 79.4955 49.8305 81.7023 47.9905C81.5121 48.4346 80.8779 49.8051 81.2204 50.6299C81.956 47.1911 84.4545 46.0237 87.0164 44.6406C88.513 43.8412 90.111 43.1306 91.671 42.7499C91.2397 43.3717 90.7578 43.9554 90.6056 44.9197C92.6095 41.7855 96.2368 40.1994 101.158 40.8973C100.65 41.2018 100.13 41.4937 99.6231 41.7982L99.4328 41.684L95.7548 43.0671L98.7226 42.3185C98.1518 42.6484 97.5811 42.9783 97.0231 43.3082L93.3197 43.8285L96.2748 43.7523C94.1568 45.0086 92.0514 46.3282 90.0222 47.8383C89.9715 47.8763 89.9334 47.9144 89.8827 47.9525L86.5091 49.1072L89.1344 48.5362C87.7647 49.6021 86.433 50.5791 84.1628 50.4395C84.5813 50.6806 85.4818 50.8456 85.9637 50.8202C85.9891 51.1755 85.431 51.4927 85.0252 51.8607C83.034 53.7007 81.3218 56.2385 77.8087 56.2893C76.5277 57.3805 73.7249 60.5401 73.7249 60.5401" fill="white"/>
<path d="M136.048 30.1241C135.731 29.9465 135.147 29.6293 134.463 29.3628C134.234 28.4365 133.613 27.9797 133.321 27.8147L133.232 27.7766C132.915 27.4087 132.345 27.0153 131.431 26.9899H131.33C130.29 26.9899 129.288 27.7132 128.261 29.1851H127.424V28.7791C128.908 27.7513 129.618 26.7488 129.618 25.7083V25.6068C129.592 24.6932 129.199 24.1222 128.831 23.8049L128.781 23.6907C128.629 23.4243 128.172 22.8025 127.246 22.5741C126.954 21.8508 126.625 21.2417 126.485 20.9879C126.117 20.3408 125.432 19.9347 124.697 19.9347C123.961 19.9347 123.264 20.3408 122.896 20.9879C122.718 21.2925 122.401 21.8889 122.135 22.5741C121.196 22.8025 120.753 23.4243 120.588 23.7161L120.55 23.8049C120.182 24.1348 119.789 24.6932 119.763 25.6195V25.7083C119.763 26.7488 120.486 27.7513 121.957 28.7791V29.1851H121.12C120.093 27.7005 119.091 26.9899 118.051 26.9899H117.95C117.036 27.0153 116.478 27.4087 116.149 27.7766L116.035 27.8274C115.768 27.9797 115.147 28.4365 114.918 29.3628C114.196 29.6546 113.587 29.9846 113.333 30.1241C112.686 30.4921 112.28 31.1773 112.28 31.926C112.28 32.6747 112.686 33.3599 113.333 33.7279C113.638 33.9055 114.234 34.2228 114.918 34.4892C115.147 35.4282 115.768 35.8723 116.06 36.0373L116.149 36.0754C116.478 36.4434 117.036 36.8367 117.95 36.8621H118.051C119.091 36.8621 120.093 36.1388 121.12 34.6669H121.957V42.2043C120.486 43.2321 119.763 44.2345 119.763 45.275V45.3765C119.789 46.2902 120.182 46.8612 120.55 47.1784L120.6 47.2926C120.753 47.5591 121.209 48.1809 122.135 48.4093C122.401 49.0818 122.718 49.6782 122.896 49.9954C123.264 50.6426 123.949 51.0486 124.697 51.0486C125.445 51.0486 126.13 50.6426 126.498 49.9954C126.713 49.6147 127.005 49.0437 127.259 48.4093C128.185 48.1809 128.641 47.5718 128.806 47.2672L128.844 47.1911C129.212 46.8739 129.605 46.3029 129.63 45.3892V45.2877C129.63 44.2472 128.908 43.2448 127.436 42.2169V34.6796H128.273C129.301 36.1642 130.303 36.8748 131.343 36.8748H131.444C132.357 36.8621 132.928 36.456 133.258 36.0881L133.372 36.0373C133.638 35.885 134.26 35.4282 134.488 34.5019C135.16 34.2354 135.756 33.9182 136.073 33.7406C136.72 33.3726 137.126 32.6874 137.126 31.9387C137.126 31.19 136.733 30.5048 136.073 30.1368M135.845 33.3218C135.503 33.5122 134.83 33.8675 134.082 34.1466C133.968 35.0349 133.397 35.479 133.156 35.6186L132.966 35.7074C132.801 35.9231 132.345 36.3672 131.469 36.3926C131.431 36.3926 131.406 36.3926 131.368 36.3926C131.026 36.3926 129.998 36.3926 128.552 34.1847H127.005V42.4453C129.237 43.93 129.212 44.9578 129.199 45.3512C129.187 46.1633 128.819 46.6201 128.502 46.8739L128.438 47.0135C128.299 47.2672 127.868 47.8636 126.942 47.9778C126.675 48.7138 126.32 49.3863 126.13 49.7416C125.851 50.2365 125.318 50.5537 124.748 50.5537C124.177 50.5537 123.644 50.2365 123.365 49.7416C123.175 49.399 122.82 48.7265 122.541 47.9778C121.628 47.8636 121.209 47.2926 121.07 47.0388L120.981 46.8612C120.765 46.6962 120.309 46.2394 120.296 45.3639C120.296 44.9705 120.258 43.9173 122.503 42.4453V34.1974H120.93C119.472 36.3926 118.444 36.3926 118.115 36.3926C117.404 36.3799 116.859 36.1515 116.504 35.6947L116.364 35.6313C116.098 35.479 115.515 35.0349 115.4 34.1212C114.665 33.8675 113.993 33.4995 113.638 33.3091C113.143 33.03 112.826 32.497 112.826 31.926C112.826 31.355 113.13 30.822 113.638 30.5429C113.98 30.3525 114.665 29.9846 115.413 29.7181C115.527 28.8172 116.098 28.3857 116.352 28.2461L116.529 28.1573C116.694 27.9416 117.151 27.4848 118.038 27.4721H118.089C118.482 27.4721 119.51 27.4721 120.955 29.68H122.503V28.5507C120.309 27.0914 120.309 26.0636 120.309 25.721C120.321 25.0104 120.562 24.4775 121.006 24.1095L121.07 23.9699C121.222 23.7161 121.653 23.1197 122.566 23.0055C122.833 22.2695 123.188 21.597 123.378 21.2417C123.657 20.7468 124.19 20.4296 124.76 20.4296C125.331 20.4296 125.864 20.7468 126.143 21.2417C126.333 21.5843 126.701 22.2695 126.967 23.0055C127.868 23.1197 128.299 23.6907 128.438 23.9318L128.527 24.1222C128.743 24.2871 129.199 24.7439 129.212 25.6195C129.212 26.0128 129.25 27.066 127.005 28.538V29.6546H128.578C130.036 27.4594 131.076 27.4594 131.406 27.4594C132.104 27.4721 132.649 27.7132 133.004 28.1573L133.144 28.2208C133.397 28.373 133.993 28.8045 134.107 29.7181C134.868 29.9846 135.591 30.3652 135.87 30.5302C136.365 30.8094 136.682 31.3423 136.682 31.9133C136.682 32.4843 136.365 33.0173 135.87 33.2964" fill="white"/>
<path d="M111.431 54.1828C111.431 54.1828 115.908 54.297 115.578 59.0301C115.578 59.0301 115.223 56.4923 111.837 57.4947C111.837 57.4947 115.121 58.1546 115.527 61.9106C115.527 61.9106 113.828 59.8549 112.217 60.6416C112.217 60.6416 116.339 63.0653 115.185 66.9989C115.185 66.9989 115.071 64.0677 112.762 64.7149C112.762 64.7149 115.92 66.872 113.891 72.3284C113.891 72.3284 113.993 69.3591 112.458 69.1942C112.458 69.1942 114.31 74.346 112.078 79.4978C112.078 79.4978 110.568 70.5519 95.8436 85.9566C95.8436 85.9566 94.4104 82.3782 98.7606 77.6578C98.7606 77.6578 96.427 77.7086 95.387 80.5637C95.387 80.5637 95.6533 75.3992 99.8894 73.5592C99.8894 73.5592 97.987 72.5822 96.5792 74.549C96.5792 74.549 97.226 70.2727 102.895 70.7169C102.895 70.7169 104.1 68.8642 99.623 70.1332C99.623 70.1332 100.371 68.712 102.73 68.3947C102.73 68.3947 107.512 66.7198 100.815 64.6387C100.815 64.6387 98.1518 63.6109 97.1372 63.8647C97.1372 63.8647 100.232 62.913 103.517 63.1414C103.517 63.1414 95.2982 57.9262 94.6895 62.8115C94.6895 62.8115 92.7236 57.4186 99.6357 57.9896C99.6357 57.9896 103.403 58.8017 106.307 58.1546C106.307 58.1546 104.899 56.9364 101.995 58.1165C101.995 58.1165 97.3782 55.8578 111.469 54.1828" fill="white"/>
<path d="M80.3706 81.4773C82.5521 84.5227 84.4164 82.7081 84.4164 82.7081C85.7989 81.6042 84.8096 79.0537 84.8096 79.0537C81.5375 73.7369 79.2672 77.2772 79.2672 77.2772C79.2672 77.2772 80.5355 72.5187 84.873 76.1605C84.873 76.1605 84.1374 70.7676 79.2926 72.506C79.2926 72.506 82.9072 68.547 85.9891 73.9526C85.9891 73.9526 86.154 69.2195 80.9287 68.4201C80.9033 68.4201 80.9667 68.4201 80.9794 68.4074C88.4115 66.3518 88.0437 78.3177 88.0437 78.3177C88.83 80.9317 93.8271 81.3377 93.8271 81.3377C94.0807 83.1523 94.8163 83.3172 94.8163 83.3172C93.6749 83.4568 93.3451 84.1674 93.3451 84.1674L87.511 81.3885C83.2623 88.2279 80.396 81.49 80.396 81.49" fill="white"/>
<path d="M108.133 86.6925C108.133 86.6925 101.919 87.2382 103.669 92.3519C103.669 92.3519 102.401 92.225 101.982 91.0069C101.982 91.0069 98.2026 93.7858 100.333 96.2348C100.333 96.2348 97.5811 96.1967 98.7099 92.9356C98.7099 92.9356 96.3636 94.0142 96.947 98.1001C96.947 98.1001 95.0826 95.5115 96.2368 93.0118C96.2368 93.0118 94.1695 94.4076 92.4573 92.1362C92.4573 92.1362 94.4992 92.961 95.9704 90.9942C95.9704 90.9942 93.5861 92.3139 92.5968 90.1313C92.5968 90.1313 95.1587 89.6618 95.7802 87.492C95.7802 87.492 108.881 72.4045 111.596 80.2972C111.596 80.2972 108.184 82.6828 108.133 86.6798" fill="white"/>
<path d="M126.65 63.7124C130.582 64.4992 134.323 62.2786 134.323 62.2786C131.013 67.24 125.394 67.9126 125.394 67.9126C128.781 68.8642 131.089 66.1995 131.089 66.1995C128.286 71.732 123.314 71.9604 123.314 71.9604C126.295 73.0517 128.984 70.8438 128.984 70.8438C126.904 76.0083 121.273 75.9702 121.273 75.9702C124.456 77.2264 127.88 74.9043 127.88 74.9043C125.711 79.1932 121.019 78.2162 121.019 78.2162C122.668 79.7516 125.8 79.0029 125.8 79.0029C123.403 81.7184 118.66 80.5891 118.66 80.5891C121.222 82.9746 124.088 81.9468 124.088 81.9468C119.7 85.3094 116.897 82.7208 116.897 82.7208C118.394 85.1191 121.387 84.9288 121.387 84.9288C116.897 86.4768 114.804 83.6091 114.804 83.6091C115.35 86.3753 118.089 86.2738 118.089 86.2738C112.585 88.7482 111.532 85.5252 111.519 85.4871C110.771 83.4061 115.02 78.9395 115.02 78.9395C116.288 54.0052 130.708 60.1468 130.708 60.1468C140.423 58.6748 139.181 53.7768 139.181 53.7768C142.174 61.7329 126.65 63.687 126.65 63.687" fill="white"/>
<path d="M135.604 30.9109C135.325 30.7459 134.577 30.3525 133.778 30.0734L133.702 30.048L133.638 29.9592C133.575 29.0963 133.093 28.7283 132.903 28.6141L132.7 28.5126C132.446 28.2081 132.091 27.9162 131.419 27.8908H131.406C131.038 27.8908 130.15 27.9289 128.831 29.9972L128.793 30.048L128.705 30.0861H126.523V28.2842L126.574 28.2461C128.755 26.8503 128.73 25.9494 128.73 25.6195C128.73 24.9596 128.413 24.5916 128.172 24.4013L128.02 24.1348C127.906 23.9445 127.55 23.4623 126.739 23.4116H126.663L126.587 23.3354C126.295 22.5106 125.927 21.8 125.724 21.4447C125.521 21.0767 125.141 20.861 124.722 20.861C124.304 20.861 123.923 21.0894 123.72 21.4447C123.517 21.8 123.137 22.5106 122.883 23.272L122.858 23.3354L122.769 23.3989C121.894 23.4623 121.539 23.9445 121.425 24.1475L121.323 24.3506C121.019 24.5916 120.714 24.9596 120.702 25.6322C120.702 26.0001 120.702 26.8757 122.807 28.2334L122.858 28.2588L122.896 28.3476V30.0861H120.651L120.613 30.0353C119.231 27.8908 118.343 27.8908 118.051 27.8908C117.315 27.9035 116.96 28.2081 116.77 28.4618L116.504 28.6141C116.314 28.7283 115.832 29.0836 115.768 29.8957V29.9719L115.692 30.0607C114.868 30.3398 114.157 30.7205 113.802 30.9236C113.447 31.1266 113.219 31.5073 113.219 31.926C113.219 32.3447 113.447 32.7254 113.802 32.9284C114.081 33.0934 114.83 33.4995 115.629 33.7659L115.692 33.7913L115.756 33.8801C115.819 34.7176 116.25 35.0856 116.504 35.2252L116.707 35.314C116.948 35.6186 117.315 35.9231 117.988 35.9358C118.837 35.9358 119.687 35.2252 120.588 33.8294L120.626 33.7786L120.714 33.7406H122.896V42.6737L122.845 42.7118C120.664 44.1076 120.689 45.0086 120.702 45.3385C120.714 45.9983 121.019 46.3663 121.273 46.5566L121.425 46.8231C121.539 47.0134 121.894 47.4956 122.706 47.5591H122.782L122.871 47.6352C123.15 48.4473 123.53 49.1706 123.733 49.5259C123.936 49.8939 124.316 50.1096 124.735 50.1096C125.153 50.1096 125.534 49.8812 125.737 49.5259C125.94 49.1706 126.32 48.46 126.574 47.6987L126.599 47.6352L126.688 47.5718C127.563 47.5083 127.918 47.0261 128.032 46.8231L128.134 46.6201C128.438 46.379 128.743 46.011 128.755 45.3512C128.755 45.0086 128.781 44.1203 126.65 42.7499L126.599 42.7118L126.561 42.623V33.7406H128.793L128.819 33.7913C129.745 35.2379 130.594 35.9485 131.368 35.9485C132.104 35.9358 132.471 35.6312 132.662 35.3901L132.928 35.2379C133.169 35.0983 133.6 34.7303 133.664 33.9563V33.8801L133.74 33.7913C134.602 33.4995 135.35 33.0934 135.629 32.9284C135.997 32.7254 136.213 32.3447 136.213 31.926C136.213 31.5073 135.985 31.1266 135.629 30.9236M131.254 32.5097H125.318V45.1481H124.151V32.5097H118.216V31.3423H124.151V25.8352H125.318V31.3423H131.254V32.5097Z" fill="white"/>
<path d="M154.552 12.0167L154.514 7.25822L150.164 9.17428C149.162 9.60572 125.61 19.6936 108.133 2.20792L105.926 0L103.72 2.20792C86.3442 19.5921 62.6655 9.60572 61.6636 9.17428L57.3134 7.2836V12.0294L57.1231 64.6387C57.1231 89.0908 89.2232 106.335 102.946 113.695L106.129 115.408L107.613 114.609C109.338 113.682 111.519 112.655 114.056 111.475C129.263 104.381 154.73 92.4915 154.73 64.6895C154.73 36.8875 154.552 12.2578 154.552 12.004M113.003 108.163C110.479 109.343 108.298 110.358 106.548 111.31L106.129 111.538L104.024 110.409C90.8846 103.353 60.129 86.8448 60.129 64.1058L60.2938 11.0269L61.5367 11.5725C61.6128 11.6106 69.2352 14.8971 79.0136 14.8971C89.4134 14.8971 98.2533 11.3188 105.305 4.27626L105.926 3.65449L106.561 4.27626C113.637 11.3568 122.477 14.9479 132.839 14.9479C142.63 14.9479 150.253 11.6233 150.329 11.5852L151.559 11.0396V12.3973C151.559 12.6511 151.749 37.4331 151.749 64.1819C151.749 90.9307 127.5 101.437 113.016 108.201" fill="white"/>
<path d="M156.454 94.5599V87.124L154.882 89.0781C142.871 103.937 125.039 112.464 105.964 112.464C86.8896 112.464 69.2605 104.026 57.25 89.3192L55.6773 87.3905V94.5091C53.5466 93.6082 48.5242 94.0142 48.5242 94.0142V121.334C53.6354 117.451 58.2519 116.804 61.6002 117.134C74.9044 125.42 90.111 129.772 105.977 129.772C121.843 129.772 136.999 125.433 150.278 117.172C153.652 116.753 158.408 117.299 163.709 121.334V94.0142C163.709 94.0142 158.522 93.5955 156.467 94.5472M154.692 97.4403V112.058C151.762 114.203 148.718 116.144 145.573 117.87H145.56C143.353 119.088 141.108 120.192 138.813 121.182C138.737 121.22 138.648 121.258 138.572 121.296C137.887 121.588 137.202 121.867 136.517 122.146C136.34 122.222 136.149 122.298 135.972 122.362C135.3 122.628 134.627 122.882 133.955 123.123C133.816 123.174 133.676 123.225 133.537 123.276C131.469 124.011 129.377 124.659 127.246 125.217C126.878 125.318 126.523 125.407 126.155 125.509C125.623 125.636 125.09 125.763 124.557 125.889C124.113 125.991 123.67 126.093 123.226 126.181C122.731 126.283 122.249 126.384 121.754 126.486C121.171 126.6 120.575 126.702 119.979 126.803C119.51 126.879 119.053 126.968 118.584 127.032C117.772 127.158 116.948 127.273 116.123 127.374C115.756 127.412 115.388 127.45 115.033 127.488C114.386 127.564 113.752 127.628 113.105 127.679C112.724 127.704 112.357 127.742 111.976 127.767C111.304 127.818 110.619 127.856 109.947 127.882C109.617 127.894 109.3 127.92 108.97 127.92C107.968 127.958 106.966 127.983 105.964 127.983C104.963 127.983 103.973 127.958 102.984 127.932C102.667 127.932 102.337 127.907 102.02 127.882C101.348 127.856 100.663 127.806 99.9909 127.767C99.6231 127.742 99.2553 127.717 98.8875 127.679C98.2406 127.628 97.5938 127.564 96.9597 127.488C96.6046 127.45 96.2494 127.412 95.8943 127.374C94.9812 127.26 94.0553 127.133 93.1422 126.993C92.749 126.93 92.3558 126.854 91.9627 126.79C91.4173 126.702 90.872 126.6 90.3266 126.499C89.8193 126.41 89.3247 126.296 88.83 126.194C88.4115 126.105 87.993 126.016 87.5744 125.915C87.0291 125.788 86.4837 125.661 85.951 125.534C85.6213 125.458 85.2915 125.369 84.9618 125.28C82.8438 124.722 80.7511 124.088 78.6965 123.364C78.557 123.314 78.4175 123.263 78.2907 123.225C77.5931 122.971 76.9082 122.717 76.2107 122.451C76.0712 122.4 75.9317 122.337 75.8048 122.286C72.7356 121.08 69.7298 119.672 66.8128 118.086C66.8128 118.086 66.8001 118.086 66.7874 118.073C63.5787 116.335 60.4714 114.38 57.4909 112.198V92.2885C69.7932 106.259 87.3335 114.228 106.002 114.228C124.672 114.228 142.415 106.183 154.717 92.0601V97.4403H154.692Z" fill="white"/>
<path d="M62.8811 103.176L63.604 103.823C64.0099 104.178 64.2889 104.495 64.3904 104.927C64.4791 105.308 64.3777 105.688 64.1367 105.955C63.604 106.564 62.7923 106.538 61.9553 105.79C61.9426 105.79 61.9045 105.739 61.8284 105.688C61.8031 105.663 61.7523 105.625 61.7143 105.587L60.6236 106.818L60.0782 106.335L62.8684 103.189L62.8811 103.176ZM62.3865 105.333C62.8684 105.764 63.287 105.802 63.566 105.485C63.8704 105.143 63.7308 104.762 63.2109 104.305L63.0079 104.128L62.1328 105.117L62.3865 105.346V105.333Z" fill="white"/>
<path d="M122.059 150.316C122.059 151.547 121.59 152.575 120.651 153.4C119.713 154.237 118.546 154.643 117.151 154.643C116.314 154.643 115.502 154.605 114.69 154.542V158.234C114.69 158.716 114.754 159.059 114.868 159.262C114.995 159.452 115.197 159.617 115.502 159.732C115.806 159.846 116.25 159.935 116.834 160.011C116.948 160.023 116.998 160.112 116.998 160.29C116.998 160.48 116.948 160.582 116.834 160.582C116.364 160.582 115.819 160.556 115.172 160.518C114.563 160.48 114.043 160.455 113.612 160.455C113.181 160.455 112.661 160.48 112.052 160.518C111.405 160.556 110.847 160.582 110.378 160.582C110.264 160.582 110.213 160.48 110.213 160.29C110.213 160.112 110.264 160.023 110.378 160.011C111.215 159.909 111.799 159.757 112.09 159.541C112.395 159.325 112.547 158.894 112.547 158.247V148.413C112.547 147.931 112.483 147.588 112.369 147.385C112.242 147.182 112.039 147.03 111.722 146.915C111.405 146.801 110.961 146.712 110.378 146.636C110.264 146.636 110.213 146.535 110.213 146.344C110.213 146.154 110.264 146.053 110.378 146.053C110.847 146.053 111.405 146.078 112.052 146.116C112.674 146.154 113.194 146.179 113.612 146.179C114.031 146.179 114.551 146.154 115.159 146.116C115.794 146.078 116.352 146.053 116.821 146.053C118.533 146.053 119.827 146.421 120.714 147.144C121.602 147.867 122.046 148.92 122.046 150.316H122.059ZM119.751 150.316C119.751 149.2 119.472 148.324 118.926 147.702C118.381 147.08 117.658 146.763 116.745 146.763C116.199 146.763 115.781 146.801 115.489 146.89C115.197 146.979 114.982 147.106 114.868 147.296C114.741 147.486 114.69 147.854 114.69 148.413V153.222C114.69 153.527 114.779 153.717 114.969 153.818C115.159 153.92 115.565 153.971 116.187 153.971C117.316 153.971 118.203 153.641 118.812 152.994C119.434 152.346 119.738 151.445 119.738 150.316H119.751Z" fill="white"/>
<path d="M130.087 152.296C130.087 152.575 129.998 152.816 129.833 153.006C129.669 153.197 129.453 153.298 129.212 153.298C128.908 153.298 128.603 153.197 128.299 152.994C128.058 152.829 127.855 152.752 127.677 152.752C127.221 152.752 126.764 153.019 126.282 153.552V158.247C126.282 158.856 126.384 159.275 126.599 159.516C126.802 159.757 127.259 159.922 127.931 160.011C128.045 160.023 128.096 160.112 128.096 160.29C128.096 160.48 128.045 160.582 127.931 160.582C127.652 160.582 127.246 160.556 126.726 160.518C126.155 160.48 125.686 160.455 125.356 160.455C125.027 160.455 124.595 160.48 124.101 160.518C123.657 160.556 123.289 160.582 123.01 160.582C122.896 160.582 122.845 160.48 122.845 160.29C122.845 160.112 122.896 160.023 123.01 160.011C123.619 159.935 123.999 159.795 124.177 159.579C124.342 159.364 124.431 158.932 124.431 158.247V154.389C124.431 153.831 124.354 153.463 124.215 153.298C124.075 153.133 123.758 153.006 123.264 152.956C123.15 152.956 123.099 152.867 123.099 152.676C123.099 152.511 123.15 152.423 123.264 152.423C123.949 152.245 124.519 152.055 124.963 151.839C125.407 151.623 125.699 151.445 125.838 151.293C125.927 151.204 126.003 151.166 126.092 151.166C126.282 151.166 126.384 151.217 126.384 151.331L126.295 152.651C126.853 152.131 127.335 151.775 127.728 151.56C128.134 151.344 128.527 151.242 128.92 151.242C129.237 151.242 129.516 151.344 129.745 151.56C129.973 151.763 130.087 152.016 130.087 152.296Z" fill="white"/>
<path d="M139.092 154.656C139.092 154.846 138.965 154.948 138.711 154.948H132.991C132.953 155.328 132.928 155.709 132.928 156.115C132.928 157.232 133.194 158.095 133.727 158.704C134.26 159.3 135.021 159.605 135.997 159.605C136.492 159.605 136.986 159.478 137.494 159.211C138.001 158.945 138.394 158.615 138.711 158.196L138.762 158.171C138.762 158.171 138.889 158.209 138.94 158.285C139.003 158.361 139.028 158.45 139.028 158.551C139.028 158.704 138.8 159.008 138.356 159.465C137.912 159.922 137.43 160.277 136.91 160.518C136.39 160.759 135.845 160.886 135.274 160.886C134.019 160.886 132.966 160.429 132.116 159.503C131.267 158.589 130.835 157.46 130.835 156.115C130.835 154.77 131.254 153.59 132.091 152.651C132.928 151.712 133.993 151.23 135.274 151.23C136.352 151.23 137.265 151.585 137.988 152.283C138.724 152.994 139.092 153.768 139.092 154.63V154.656ZM137.189 153.742C137.189 153.222 137.012 152.791 136.657 152.448C136.302 152.105 135.832 151.928 135.274 151.928C134.716 151.928 134.272 152.156 133.879 152.6C133.486 153.044 133.22 153.641 133.08 154.364L135.985 154.275C136.428 154.275 136.733 154.224 136.923 154.148C137.113 154.072 137.202 153.933 137.202 153.73L137.189 153.742Z" fill="white"/>
<path d="M150.456 156.14C150.456 157.511 149.986 158.653 149.073 159.554C148.147 160.455 146.968 160.912 145.522 160.912C144.698 160.912 143.987 160.747 143.391 160.429V163.652C143.391 164.325 143.48 164.769 143.658 164.998C143.835 165.213 144.216 165.366 144.812 165.442C144.926 165.442 144.977 165.543 144.977 165.734C144.977 165.924 144.926 166.025 144.812 166.025C144.52 166.025 144.152 166 143.708 165.962C143.226 165.924 142.808 165.898 142.478 165.898C142.148 165.898 141.704 165.924 141.21 165.962C140.766 166 140.398 166.025 140.119 166.025C140.005 166.025 139.954 165.924 139.954 165.734C139.954 165.543 140.005 165.442 140.119 165.442C140.715 165.366 141.096 165.213 141.273 164.998C141.451 164.782 141.54 164.338 141.54 163.665V154.415C141.54 153.856 141.463 153.488 141.324 153.323C141.184 153.146 140.867 153.032 140.373 152.981C140.259 152.981 140.208 152.892 140.208 152.702C140.208 152.537 140.259 152.448 140.373 152.448C141.045 152.283 141.616 152.093 142.072 151.877C142.529 151.661 142.833 151.471 142.973 151.319C143.049 151.23 143.125 151.192 143.188 151.192C143.379 151.192 143.48 151.242 143.48 151.357L143.391 152.676C143.772 152.283 144.216 151.953 144.71 151.674C145.218 151.407 145.636 151.268 145.991 151.268C147.361 151.268 148.452 151.712 149.251 152.613C150.05 153.514 150.456 154.694 150.456 156.153V156.14ZM148.35 156.115C148.35 154.948 148.097 154.047 147.602 153.4C147.095 152.752 146.397 152.423 145.484 152.423C145.103 152.423 144.761 152.499 144.444 152.664C144.14 152.829 143.784 153.12 143.391 153.552V158.666C143.391 159.11 143.594 159.478 143.987 159.782C144.381 160.087 144.862 160.226 145.433 160.226C146.372 160.226 147.095 159.871 147.602 159.161C148.109 158.45 148.35 157.435 148.35 156.115Z" fill="white"/>
<path d="M166.347 156.394C166.347 157.777 165.941 158.881 165.117 159.693C164.292 160.506 163.189 160.924 161.781 160.924C161.16 160.924 160.424 160.81 159.562 160.594C158.775 160.391 158.129 160.277 157.634 160.277C157.596 159.097 157.507 157.904 157.38 156.724C157.38 156.61 157.482 156.559 157.697 156.559C157.85 156.559 157.938 156.61 157.964 156.724C158.344 158.018 158.826 158.932 159.41 159.465C159.993 159.998 160.817 160.252 161.87 160.252C162.707 160.252 163.367 160.011 163.823 159.516C164.28 159.034 164.521 158.348 164.521 157.473C164.521 156.915 164.318 156.382 163.912 155.899C163.506 155.417 162.644 154.795 161.337 154.021C159.828 153.146 158.839 152.41 158.37 151.813C157.9 151.204 157.672 150.532 157.672 149.796C157.672 148.667 158.091 147.702 158.928 146.915C159.765 146.129 160.83 145.735 162.124 145.735C162.606 145.735 163.176 145.799 163.81 145.938C164.407 146.053 164.914 146.116 165.345 146.116C165.434 147.347 165.535 148.425 165.675 149.352C165.675 149.466 165.586 149.517 165.409 149.517C165.218 149.517 165.104 149.466 165.091 149.352C164.863 148.311 164.508 147.55 164.051 147.093C163.582 146.636 162.935 146.408 162.111 146.408C161.287 146.408 160.703 146.636 160.247 147.093C159.79 147.55 159.562 148.172 159.562 148.946C159.562 149.441 159.752 149.91 160.145 150.367C160.526 150.811 161.375 151.42 162.656 152.169C164.191 153.057 165.193 153.806 165.662 154.402C166.131 154.998 166.372 155.658 166.372 156.382L166.347 156.394Z" fill="white"/>
<path d="M175.884 152.905C175.884 153.476 175.593 153.755 175.035 153.755C174.794 153.755 174.591 153.704 174.439 153.603C174.286 153.501 174.122 153.273 173.969 152.917C173.779 152.511 173.576 152.232 173.373 152.105C173.158 151.978 172.891 151.915 172.549 151.915C171.712 151.915 171.065 152.27 170.621 152.968C170.177 153.666 169.962 154.694 169.962 156.039C169.962 157.156 170.241 158.069 170.799 158.754C171.357 159.44 172.105 159.782 173.031 159.782C174.084 159.782 174.933 159.452 175.542 158.793L175.593 158.767C175.593 158.767 175.72 158.805 175.77 158.881C175.834 158.957 175.859 159.046 175.859 159.148C175.859 159.287 175.656 159.528 175.25 159.871C174.844 160.214 174.401 160.468 173.919 160.645C173.437 160.823 172.917 160.912 172.384 160.912C171.141 160.912 170.076 160.455 169.188 159.541C168.3 158.628 167.856 157.473 167.856 156.064C167.856 154.656 168.326 153.527 169.251 152.626C170.177 151.712 171.281 151.268 172.549 151.268C173.487 151.268 174.286 151.433 174.933 151.75C175.58 152.067 175.91 152.461 175.91 152.917L175.884 152.905Z" fill="white"/>
<path d="M188.237 160.29C188.237 160.48 188.187 160.582 188.073 160.582C187.794 160.582 187.451 160.556 187.045 160.518C186.601 160.48 186.208 160.455 185.878 160.455C185.549 160.455 185.13 160.48 184.674 160.518C184.255 160.556 183.913 160.582 183.634 160.582C183.519 160.582 183.469 160.48 183.469 160.29C183.469 160.112 183.519 160.023 183.634 160.011C184.116 159.96 184.433 159.82 184.585 159.605C184.737 159.389 184.813 158.932 184.813 158.247V154.757C184.813 153.26 184.128 152.499 182.759 152.499C181.896 152.499 181.148 152.841 180.514 153.539V158.234C180.514 158.856 180.602 159.3 180.78 159.541C180.958 159.782 181.313 159.935 181.845 159.998C181.96 160.011 182.01 160.1 182.01 160.277C182.01 160.468 181.96 160.569 181.845 160.569C181.566 160.569 181.186 160.544 180.729 160.506C180.209 160.468 179.791 160.442 179.448 160.442C179.106 160.442 178.7 160.468 178.256 160.506C177.863 160.544 177.521 160.569 177.229 160.569C177.115 160.569 177.064 160.468 177.064 160.277C177.064 160.1 177.115 160.011 177.229 159.998C177.812 159.935 178.193 159.795 178.37 159.579C178.548 159.364 178.637 158.919 178.637 158.234V148.54C178.637 147.981 178.573 147.613 178.434 147.436C178.294 147.258 177.977 147.144 177.482 147.093C177.368 147.08 177.318 146.992 177.318 146.827C177.318 146.636 177.368 146.547 177.482 146.547C178.662 146.268 179.55 145.9 180.121 145.444C180.222 145.355 180.311 145.317 180.387 145.317C180.577 145.317 180.679 145.367 180.679 145.482C180.564 146.624 180.514 147.829 180.514 149.111V152.651C181.516 151.699 182.492 151.23 183.469 151.23C184.445 151.23 185.244 151.496 185.802 152.042C186.373 152.588 186.652 153.311 186.652 154.237V158.222C186.652 158.907 186.741 159.351 186.918 159.567C187.096 159.782 187.476 159.922 188.073 159.985C188.187 159.998 188.237 160.087 188.237 160.264V160.29Z" fill="white"/>
<path d="M198.764 156.14C198.764 157.524 198.308 158.666 197.407 159.567C196.507 160.468 195.34 160.912 193.907 160.912C192.474 160.912 191.307 160.468 190.394 159.567C189.48 158.666 189.036 157.536 189.036 156.153C189.036 154.77 189.493 153.59 190.406 152.664C191.319 151.737 192.486 151.268 193.907 151.268C195.327 151.268 196.494 151.725 197.407 152.651C198.308 153.577 198.764 154.745 198.764 156.153V156.14ZM196.659 156.115C196.659 154.846 196.418 153.818 195.923 153.057C195.429 152.296 194.756 151.915 193.907 151.915C193.057 151.915 192.385 152.296 191.89 153.07C191.395 153.844 191.155 154.846 191.155 156.115C191.155 157.384 191.395 158.374 191.89 159.122C192.372 159.858 193.057 160.239 193.919 160.239C194.782 160.239 195.454 159.871 195.949 159.135C196.431 158.399 196.684 157.397 196.684 156.128L196.659 156.115Z" fill="white"/>
<path d="M209.95 156.14C209.95 157.524 209.494 158.666 208.593 159.567C207.693 160.468 206.526 160.912 205.093 160.912C203.66 160.912 202.493 160.468 201.58 159.567C200.667 158.666 200.223 157.536 200.223 156.153C200.223 154.77 200.679 153.59 201.592 152.664C202.506 151.737 203.672 151.268 205.093 151.268C206.513 151.268 207.693 151.725 208.593 152.651C209.494 153.577 209.95 154.745 209.95 156.153V156.14ZM207.845 156.115C207.845 154.846 207.604 153.818 207.109 153.057C206.615 152.296 205.943 151.915 205.093 151.915C204.243 151.915 203.571 152.296 203.076 153.07C202.582 153.831 202.341 154.846 202.341 156.115C202.341 157.384 202.582 158.374 203.076 159.122C203.571 159.871 204.243 160.239 205.106 160.239C205.968 160.239 206.64 159.871 207.135 159.135C207.617 158.399 207.87 157.397 207.87 156.128L207.845 156.115Z" fill="white"/>
<path d="M216 160.277C216 160.467 215.949 160.569 215.835 160.569C215.556 160.569 215.188 160.556 214.744 160.518C214.25 160.48 213.819 160.467 213.476 160.467C213.134 160.467 212.728 160.48 212.233 160.518C211.789 160.556 211.422 160.569 211.143 160.569C211.028 160.569 210.978 160.467 210.978 160.277C210.978 160.1 211.028 160.011 211.143 159.998C211.739 159.935 212.119 159.782 212.297 159.579C212.474 159.376 212.563 158.919 212.563 158.234V148.54C212.563 147.981 212.5 147.613 212.347 147.436C212.208 147.258 211.891 147.144 211.383 147.093C211.269 147.08 211.219 146.992 211.219 146.827C211.219 146.662 211.269 146.573 211.383 146.573C212.119 146.383 212.715 146.179 213.184 145.976C213.654 145.761 213.945 145.583 214.06 145.444C214.136 145.367 214.212 145.329 214.288 145.329C214.478 145.329 214.58 145.38 214.58 145.494C214.465 147.055 214.415 148.26 214.415 149.123V158.234C214.415 158.919 214.503 159.364 214.681 159.579C214.859 159.795 215.239 159.935 215.835 159.998C215.949 160.011 216 160.1 216 160.277Z" fill="white"/>
<path d="M65.3162 105.308L67.2313 106.83L66.8254 107.338L65.4684 106.259L64.8342 107.071L65.9884 107.998L65.5825 108.493L64.4284 107.566L63.6547 108.531L65.0245 109.635L64.6186 110.142L62.6909 108.594L65.3162 105.308Z" fill="white"/>
<path d="M67.7513 107.236L68.5376 107.807C68.9688 108.125 69.2859 108.391 69.4381 108.81C69.5649 109.178 69.5142 109.546 69.3113 109.825C68.9942 110.269 68.4869 110.421 67.8781 110.244L67.9035 112.54L67.2059 112.033V109.863L66.9015 109.66L65.8742 111.081L65.2908 110.662L67.7513 107.249V107.236ZM67.4976 109.419C68.0303 109.8 68.4362 109.787 68.6898 109.444C68.9561 109.076 68.7786 108.721 68.2206 108.302L67.9923 108.137L67.2186 109.216L67.4976 109.406V109.419Z" fill="white"/>
<path d="M69.4254 112.908C69.8059 113.162 70.1864 113.099 70.3639 112.82C70.5415 112.553 70.4781 112.274 70.2625 111.843L70.0976 111.513C69.7932 110.904 69.7171 110.459 69.9961 110.028C70.3512 109.482 71.0234 109.368 71.6702 109.787C71.9746 109.99 72.2156 110.244 72.4185 110.574L72.0381 111.132C71.8224 110.739 71.6195 110.459 71.3912 110.32C71.0488 110.104 70.7571 110.142 70.6049 110.383C70.4654 110.599 70.5288 110.853 70.7317 111.246L70.8966 111.563C71.2264 112.223 71.3151 112.718 70.9981 113.213C70.6049 113.835 69.8566 113.974 69.0956 113.479C68.7659 113.264 68.4869 112.985 68.2713 112.655L68.6644 111.919C68.88 112.388 69.1083 112.718 69.4127 112.908" fill="white"/>
<path d="M73.2049 110.904L75.3229 112.134L74.9931 112.693L73.4966 111.83L72.9766 112.718L74.2702 113.467L73.9405 114.025L72.6595 113.276L72.0381 114.342L73.5727 115.218L73.2429 115.789L71.0869 114.545L73.2049 110.904Z" fill="white"/>
<path d="M75.0565 116.931L75.3483 112.16L76.0458 112.528L75.8429 115.522L78.1511 113.594L78.8106 113.936L75.12 116.969L75.0565 116.931Z" fill="white"/>
<path d="M79.0262 114.012L81.2584 115.002L80.9921 115.599L79.4194 114.901L78.9882 115.84L80.3453 116.449L80.0916 117.032L78.7345 116.423L78.2272 117.553L79.8379 118.263L79.5716 118.86L77.3014 117.857L79.0262 114.012Z" fill="white"/>
<path d="M81.8545 115.256L82.7677 115.611C83.2623 115.802 83.6428 115.979 83.8837 116.347C84.0993 116.664 84.1501 117.045 84.0232 117.362C83.8203 117.883 83.3764 118.149 82.7423 118.124L83.3511 120.332L82.552 120.027L81.9813 117.933L81.6516 117.806L81.0301 119.443L80.3579 119.177L81.8672 115.243L81.8545 115.256ZM82.1589 117.426C82.7677 117.654 83.1608 117.553 83.313 117.147C83.4779 116.715 83.2242 116.411 82.5647 116.17L82.3111 116.068L81.8418 117.299L82.1589 117.426Z" fill="white"/>
<path d="M83.275 120.319L86.5725 116.817L86.6359 116.842L87.2066 121.588L86.471 121.347L86.3822 120.522L84.5559 119.938L83.9979 120.547L83.2876 120.319H83.275ZM86.3061 119.875L86.1286 118.174L84.9871 119.456L86.3061 119.875Z" fill="white"/>
<path d="M88.6778 117.477L88.7539 117.489L90.6944 120.89L91.3539 118.289L92.0388 118.466L90.9861 122.679L90.91 122.666L88.9569 119.266L88.31 121.867L87.6125 121.689L88.6778 117.477Z" fill="white"/>
<path d="M93.6748 123.072L92.9392 122.933L93.5987 119.431L92.2036 119.164L92.3304 118.53L95.8436 119.19L95.7167 119.824L94.3343 119.558L93.6748 123.072Z" fill="white"/>
<path d="M96.2241 119.228L96.9596 119.342L96.3382 123.504L95.6026 123.39L96.2241 119.228Z" fill="white"/>
<path d="M96.7567 123.593L99.2679 119.481H99.3313L100.866 124.024L100.092 123.935L99.8387 123.161L97.9362 122.958L97.5177 123.669L96.7694 123.593H96.7567ZM99.6231 122.54L99.1031 120.903L98.2533 122.387L99.6231 122.527V122.54Z" fill="white"/>
<path d="M105.026 123.669C105.482 123.669 105.774 123.428 105.774 123.098C105.774 122.781 105.584 122.578 105.165 122.324L104.848 122.133C104.265 121.778 103.973 121.448 103.986 120.928C103.986 120.281 104.506 119.824 105.28 119.837C105.647 119.837 105.99 119.938 106.332 120.103L106.294 120.776C105.901 120.56 105.584 120.433 105.318 120.42C104.924 120.42 104.696 120.611 104.683 120.89C104.683 121.156 104.861 121.321 105.254 121.55L105.559 121.727C106.193 122.121 106.522 122.489 106.51 123.072C106.51 123.808 105.939 124.316 105.039 124.303C104.645 124.303 104.252 124.202 103.91 124.037L103.859 123.212C104.29 123.504 104.658 123.656 105.013 123.656" fill="white"/>
<path d="M106.687 124.202L108.577 119.773H108.64L110.809 124.037L110.036 124.062L109.668 123.326L107.753 123.402L107.436 124.164L106.687 124.202ZM109.376 122.743L108.628 121.194L107.994 122.793L109.376 122.743Z" fill="white"/>
<path d="M110.835 119.799L111.798 119.71C112.344 119.659 112.75 119.672 113.13 119.887C113.46 120.078 113.676 120.42 113.714 120.776C113.79 121.575 113.219 122.159 112.116 122.26C112.103 122.26 112.039 122.26 111.951 122.273C111.913 122.273 111.849 122.273 111.798 122.286L111.951 123.923L111.228 123.999L110.835 119.811V119.799ZM112.078 121.639C112.724 121.575 113.029 121.309 112.991 120.877C112.953 120.42 112.585 120.268 111.887 120.332L111.621 120.357L111.748 121.664L112.078 121.639Z" fill="white"/>
<path d="M114.107 119.456L114.842 119.355L115.4 123.529L114.665 123.631L114.107 119.456Z" fill="white"/>
<path d="M115.743 119.228L118.165 118.822L118.267 119.456L116.567 119.748L116.745 120.763L118.203 120.509L118.317 121.144L116.846 121.397L117.062 122.616L118.799 122.311L118.901 122.958L116.466 123.377L115.743 119.228Z" fill="white"/>
<path d="M118.749 118.568L118.825 118.555L122.11 120.674L121.501 118.073L122.198 117.908L123.188 122.146L123.111 122.159L119.827 120.04L120.435 122.641L119.738 122.806L118.749 118.568Z" fill="white"/>
<path d="M125.75 121.245L125.039 121.461L124.025 118.048L122.668 118.454L122.477 117.832L125.902 116.817L126.092 117.426L124.735 117.832L125.75 121.245Z" fill="white"/>
<path d="M126.948 116.442L126.241 116.686L127.618 120.668L128.325 120.423L126.948 116.442Z" fill="white"/>
<path d="M128.73 120.294L129.072 115.497L129.123 115.472L132.56 118.796L131.837 119.075L131.254 118.504L129.466 119.202L129.415 120.027L128.717 120.306L128.73 120.294ZM130.797 118.035L129.592 116.817L129.516 118.53L130.797 118.022V118.035Z" fill="white"/>
<path d="M135.566 113.276C134.792 113.682 134.539 114.52 134.97 115.357C135.388 116.17 136.2 116.461 136.999 116.055C137.24 115.928 137.443 115.751 137.646 115.522L137.24 114.736L136.34 115.205L136.048 114.621L137.595 113.822L138.508 115.599C138.191 116.081 137.785 116.449 137.329 116.677C136.137 117.286 134.894 116.867 134.298 115.713C133.702 114.545 134.095 113.276 135.262 112.68C135.68 112.464 136.124 112.375 136.606 112.375L136.948 113.175C136.441 113.035 135.972 113.073 135.579 113.276" fill="white"/>
<path d="M137.24 111.779L138.077 111.284C138.534 111.005 138.914 110.827 139.358 110.865C139.739 110.891 140.068 111.094 140.233 111.386C140.512 111.868 140.449 112.388 140.043 112.87L142.161 113.771L141.425 114.215L139.434 113.365L139.13 113.543L140.018 115.04L139.396 115.408L137.253 111.792L137.24 111.779ZM139.143 112.883C139.701 112.553 139.865 112.172 139.637 111.804C139.396 111.411 139.003 111.424 138.407 111.779L138.179 111.919L138.851 113.061L139.143 112.883Z" fill="white"/>
<path d="M142.085 113.809L141.375 109.051L141.425 109.013L145.509 111.5L144.862 111.931L144.165 111.5L142.58 112.566L142.706 113.378L142.085 113.797V113.809ZM143.607 111.157L142.161 110.244L142.465 111.931L143.607 111.157Z" fill="white"/>
<path d="M146.803 110.51L146.207 110.954L144.076 108.099L142.935 108.949L142.554 108.429L145.42 106.297L145.801 106.805L144.672 107.655L146.803 110.51Z" fill="white"/>
<path d="M145.725 106.031L146.296 105.561L148.946 108.835L148.363 109.292L145.725 106.031Z" fill="white"/>
<path d="M149.289 108.594L147.97 103.963L148.008 103.924L152.383 105.866L151.8 106.373L151.052 106.044L149.618 107.312L149.859 108.099L149.301 108.594H149.289ZM150.456 105.764L148.908 105.041L149.428 106.678L150.468 105.764H150.456Z" fill="white"/>
</g>
<defs>
<clipPath id="clip0_502_2402">
<rect width="216" height="166" fill="white"/>
</clipPath>
</defs>
</svg>
